<svg id="icons" xml:space="preserve" xmlns="http://www.w3.org/2000/svg" >
    <style>
        path { stroke: none; fill: #fff; }
<!--        .grid {-->
<!--            stroke-dasharray: 1, 5;-->
<!--            stroke: red;-->
<!--            stroke-width: 1;-->
<!--        }-->
<!--        #icons { background: grey }-->
        #icon-training path { stroke: #fff; fill: none; }
        #icon-menu path { stroke: none; fill: #000; }
        #icon-ai { stroke: #fff; fill: none; stroke-width: 1.9; }
    </style>


    <view xmlns="http://www.w3.org/2000/svg" id="icon-training-view" viewBox="0 0 50 50" />
    <g id="icon-training" transform="translate(0,-3) scale(0.85)">
        <path d="M54 12v30c0 2.2-1.8 4-4 4H13c-2.2 0-4-1.8-4-4V12M6 12h51M32 12V8M32 50l7.2 7.2M32 50l-7.6 7.6M28 50h8M46.8 25v12M42 37V20.8M37.5 37v-7" stroke-linecap="round" stroke-linejoin="round" stroke-miterlimit="10" stroke-width="2"></path>
        <path d="M15.2 32.1s.4-3.5 1.8-2.7c1.4.8.5 7.4 2.6 4.8s1.9-9.1 3.5-9 1.1 11.5 2.9 11.5 5.5-16.3 5.5-16.3" stroke-linecap="round" stroke-linejoin="round" stroke-miterlimit="10" stroke-width="2" ></path>
    </g>

    <view xmlns="http://www.w3.org/2000/svg" id="icon-career-view" viewBox="0 50 50 75"/>
    <g id="icon-career"  transform="translate(-5,55) scale(0.5)">
        <path d="M52.197 20.146 31.371.543a2 2 0 1 0-2.742 2.914L49.406 23.01c.185-.23 2.791-2.865 2.791-2.865zM99.457.663A1.999 1.999 0 0 0 96.63.576L75.81 20.152s2.603 2.634 2.79 2.867l20.77-19.53a2 2 0 0 0 .087-2.826zM75.884 35.773l-3.388 3.388 8.53 41.481-32.34-9.24 6.583-32.476-3.394-3.394-11.783 58.13c-.378 2.17.44 5.314 1.825 7.023l19.637 26.028c.695.858 1.61 1.287 2.525 1.287.908 0 1.817-.423 2.513-1.27l19.515-25.563c1.397-1.7 2.196-4.832 1.785-6.996L75.884 35.773zm7.852 58.046L46.602 82.093c-.027-.008-.053-.01-.08-.017l1.367-6.742 33.562 9.589c.156.045.313.06.47.066l1.815 8.83zm-.808 4.92-18.845 24.685L45.11 98.276a6.426 6.426 0 0 0-.086-.11c-.654-.807-1.159-2.73-.998-3.778l1.699-8.378 37.673 11.897c.012.004.024.002.036.006a3.226 3.226 0 0 1-.506.827z"></path>
        <path d="m52.829 30.829 8.342 8.342A3.988 3.988 0 0 0 64 40.338c1.025 0 2.05-.389 2.829-1.167l8.342-8.342a4.012 4.012 0 0 0 0-5.658L66.83 16.83A3.988 3.988 0 0 0 64 15.662c-1.025 0-2.05.389-2.829 1.167L52.83 25.17a4.012 4.012 0 0 0 0 5.658zm11.16-11.166H64v-.006L72.343 28 64 36.343 55.657 28l8.332-8.337z"></path>
    </g>

    <view xmlns="http://www.w3.org/2000/svg" id="icon-education-view" viewBox="49 0 50 50" />
    <g id="icon-education" transform="translate(48,0) scale(0.55)">
        <path d="M88.624 33.519 50.771 10.813a1.498 1.498 0 0 0-1.542 0L11.376 33.519a1.498 1.498 0 0 0 0 2.572l11.754 7.05-4.434 15.445a1.5 1.5 0 0 0 .7 1.718l29.862 17a1.502 1.502 0 0 0 1.484 0l16.425-9.35v7.745c-2.55.667-4.44 2.984-4.44 5.74 0 3.276 2.665 5.94 5.94 5.94s5.94-2.664 5.94-5.94c0-2.756-1.89-5.073-4.44-5.74v-9.453l10.437-5.942a1.5 1.5 0 0 0 .7-1.718L76.87 43.14l11.754-7.05a1.498 1.498 0 0 0 0-2.572zm-17.018 47.92c0 1.622-1.318 2.94-2.939 2.94s-2.94-1.318-2.94-2.94 1.319-2.939 2.94-2.939 2.94 1.318 2.94 2.94zM50 74.274 21.905 58.28l3.887-13.541L49.23 58.797a1.498 1.498 0 0 0 1.542 0l16.396-9.835v15.54L50 74.273zM78.095 58.28l-7.928 4.513v-15.63l4.04-2.424 3.888 13.541zm-2.081-18.123-2.663 1.597-4.948 2.968L50.805 33.54a1.5 1.5 0 1 0-1.61 2.531l16.33 10.378L50 55.762 26.649 41.754l-2.663-1.597-8.923-5.352L50 13.848l34.937 20.957-8.923 5.352z"></path>
    </g>

    <view xmlns="http://www.w3.org/2000/svg" id="icon-skills-view" viewBox="49 49 50 75" />
    <g id="icon-skills" transform="translate(40,49) scale(1)">
        <path d="M35.7 27.2c2.2 0 4-1.8 4-4s-1.8-4-4-4-4 1.8-4 4 1.8 4 4 4zm0-5.9c1.1 0 2 .9 2 2s-.9 2-2 2-2-.9-2-2 .9-2 2-2z"></path>
        <path d="M18.1 70.4c.5.2 1.1-.1 1.3-.6l1.6-4.7c1.6.1 2.9-.9 3.4-2.4l4.4-13.1c1.2.4 2.4.7 3.6.9.4 1.5 1.8 2.6 3.4 2.6 1.6 0 3-1.1 3.4-2.6 1.2-.2 2.4-.5 3.6-.9L47 62.8c.5 1.5 1.9 2.4 3.4 2.4l1.5 4.7c.2.5.7.8 1.3.6.5-.2.8-.7.6-1.3l-1.5-4.7c1.4-1 1.8-2.6 1.3-4l-4.7-14.3c5.4-4.1 8.6-10.6 8.6-17.4 0-.6-.4-1-1-1s-1 .4-1 1c0 6-2.7 11.6-7.3 15.4L42.8 28c.9-1.4 1.4-3 1.4-4.7 0-3.5-2.1-6.5-5.1-7.8V8c0-1.9-1.6-3.5-3.5-3.5S32.2 6.1 32.2 8v7.4c-3 1.3-5.1 4.3-5.1 7.8 0 1.8.5 3.4 1.4 4.8L17.7 60.6c-.5 1.5.1 3.1 1.3 4l-1.6 4.7c-.1.4.2 1 .7 1.1zm17.6-19.3c-.8 0-1.5-.7-1.5-1.5s.7-1.5 1.5-1.5 1.5.7 1.5 1.5-.7 1.5-1.5 1.5zm3.3-2.6c-.5-1.4-1.8-2.4-3.3-2.4-1.5 0-2.8 1-3.3 2.4-1-.2-2-.4-3-.8l5.3-16c.3 0 .7.1 1 .1.3 0 .7 0 1-.1l5.3 16c-1 .4-2 .6-3 .8zm11.8 14.6c-.7.3-1.6-.1-1.9-1-7.2-21.7-1.9-5.7-10.3-30.9 1-.4 1.9-.9 2.7-1.6l10.5 31.5c.2.9-.1 1.7-1 2zM34.2 8c0-.8.7-1.5 1.5-1.5s1.5.7 1.5 1.5v6.8c-.5-.1-1-.1-1.5-.1s-1 .1-1.5.1V8zm1.5 8.7c3.6 0 6.6 2.9 6.6 6.6 0 3.6-2.9 6.6-6.6 6.6-3.6 0-6.6-2.9-6.6-6.6 0-3.7 3-6.6 6.6-6.6zM19.6 61.2l10.5-31.5c.8.7 1.7 1.2 2.6 1.6-2.4 7.2-8.4 25.1-10.3 30.9-.3.8-1.1 1.2-1.9.9-.7-.3-1.1-1.1-.9-1.9z"></path>
    </g>

    <view xmlns="http://www.w3.org/2000/svg" id="icon-devops-view" viewBox="100 0 50 48"/>
    <g id="icon-devops" transform="translate(100,-3) scale(0.048)">
        <path d="M818.596 221.014H181.404c-16.569 0-30 13.431-30 30v93.212h697.192v-93.212c0-16.569-13.431-30-30-30zM635.371 295.12h-28c-6.875 0-12.5-5.625-12.5-12.5s5.625-12.5 12.5-12.5h28c6.875 0 12.5 5.625 12.5 12.5s-5.625 12.5-12.5 12.5zm83.5 0h-28c-6.875 0-12.5-5.625-12.5-12.5s5.625-12.5 12.5-12.5h28c6.875 0 12.5 5.625 12.5 12.5s-5.625 12.5-12.5 12.5zm83.5 0h-28c-6.875 0-12.5-5.625-12.5-12.5s5.625-12.5 12.5-12.5h28c6.875 0 12.5 5.625 12.5 12.5s-5.625 12.5-12.5 12.5zM799.702 565.448c1.441-1.431 2.161-3.229 2.161-5.392 0-2.036-.72-3.785-2.161-5.249-1.441-1.463-3.215-2.195-5.327-2.195h-9.215v14.984h9.215c2.112 0 3.887-.716 5.327-2.148zM198.647 524.545c2.072-.769 3.864-1.857 5.378-3.264a15.583 15.583 0 0 0 3.585-4.974c.876-1.91 1.315-4.006 1.315-6.288 0-2.387-.439-4.549-1.315-6.487a14.751 14.751 0 0 0-3.625-4.974c-1.541-1.379-3.346-2.454-5.417-3.223-2.072-.769-4.275-1.155-6.612-1.155h-6.293v31.518h6.293c2.389 0 4.619-.384 6.691-1.153zM779.113 507.685a19.956 19.956 0 0 0 6.363 4.353c2.423 1.052 5.071 1.579 7.941 1.579s5.533-.526 7.989-1.579a20.419 20.419 0 0 0 6.458-4.353c1.849-1.85 3.301-4.019 4.353-6.506 1.052-2.488 1.579-5.134 1.579-7.941 0-2.806-.543-5.454-1.626-7.941-1.085-2.488-2.552-4.655-4.401-6.506-1.851-1.849-4.018-3.316-6.506-4.401a19.436 19.436 0 0 0-7.845-1.626c-2.87 0-5.534.559-7.989 1.674-2.456 1.117-4.577 2.616-6.362 4.497-1.786 1.882-3.19 4.083-4.21 6.602a20.824 20.824 0 0 0-1.531 7.893c0 2.807.51 5.422 1.531 7.845a20.24 20.24 0 0 0 4.256 6.41z"></path>
        <path d="M151.404 748.986c0 16.569 13.431 30 30 30h637.192c16.569 0 30-13.431 30-30v-379.76H151.404v379.76zm661.161-73.43c-1.208 2.485-2.78 4.556-4.711 6.213a19.814 19.814 0 0 1-6.524 3.728 22.543 22.543 0 0 1-7.352 1.243c-2.899 0-5.643-.517-8.232-1.553-2.589-1.036-4.851-2.382-6.783-4.038-1.933-1.657-3.469-3.521-4.608-5.592-1.139-2.071-1.709-4.142-1.709-6.213 0-2.002.621-3.537 1.864-4.608 1.243-1.069 2.657-1.605 4.246-1.605 1.38 0 2.64.38 3.779 1.139 1.139.76 1.88 2.003 2.226 3.728.345 2.003 1.38 3.573 3.107 4.712 1.725 1.139 3.762 1.708 6.109 1.708 2.001 0 3.831-.603 5.488-1.812 1.657-1.207 2.485-3.055 2.485-5.54 0-2.001-.45-3.64-1.346-4.919-.898-1.276-2.055-2.398-3.469-3.365a35.099 35.099 0 0 0-4.608-2.641 37.646 37.646 0 0 1-4.66-2.641 34.087 34.087 0 0 1-4.246-3.365 27.245 27.245 0 0 1-3.728-4.246 21.44 21.44 0 0 1-2.64-4.97c-.657-1.76-.984-3.641-.984-5.643 0-2.83.534-5.297 1.605-7.404 1.07-2.105 2.45-3.865 4.142-5.281a17.097 17.097 0 0 1 5.695-3.158 20.362 20.362 0 0 1 6.368-1.036c2.071 0 4.158.363 6.265 1.088 2.105.725 3.987 1.76 5.644 3.107a16.414 16.414 0 0 1 4.038 4.815c1.035 1.864 1.553 3.935 1.553 6.213 0 1.796-.605 3.331-1.812 4.608-1.209 1.278-2.676 1.916-4.401 1.916-1.589 0-2.935-.448-4.038-1.346-1.105-.896-1.76-2.346-1.967-4.349-.139-1.243-.795-2.175-1.968-2.796-1.175-.621-2.314-.932-3.417-.932-1.726 0-3.021.45-3.883 1.346-.864.898-1.294 1.968-1.294 3.21 0 1.589.379 2.917 1.139 3.987.759 1.071 1.725 2.003 2.9 2.796a28.9 28.9 0 0 0 3.831 2.174c1.38.657 2.657 1.33 3.831 2.02a41.274 41.274 0 0 1 5.436 3.935 27.278 27.278 0 0 1 4.401 4.763 23.128 23.128 0 0 1 2.951 5.54c.725 1.967 1.087 4.09 1.087 6.368.003 3.312-.603 6.211-1.81 8.696zm-38.666-79.329V548.03c0-4.453 2.258-6.681 6.776-6.681h13.648c2.544 0 4.963.494 7.253 1.479a19.1 19.1 0 0 1 6.013 4.056 19.1 19.1 0 0 1 4.056 6.013 18.16 18.16 0 0 1 1.479 7.254c0 2.61-.495 5.043-1.485 7.301a19.166 19.166 0 0 1-10.104 10.021 18.246 18.246 0 0 1-7.277 1.479h-9.098v17.275c0 3.818-1.861 5.727-5.583 5.727-3.785 0-5.678-1.909-5.678-5.727zm-9.855-114.997c1.594-3.858 3.811-7.255 6.649-10.19 2.837-2.933 6.171-5.262 9.998-6.984 3.827-1.722 7.972-2.584 12.438-2.584 4.593 0 8.85.846 12.773 2.536 3.923 1.691 7.334 3.971 10.237 6.841 2.902 2.87 5.167 6.236 6.793 10.094 1.627 3.86 2.44 7.957 2.44 12.294 0 4.401-.83 8.532-2.487 12.39-1.66 3.86-3.923 7.224-6.793 10.094-2.87 2.87-6.235 5.119-10.094 6.745-3.86 1.626-7.989 2.44-12.39 2.44-4.401 0-8.548-.813-12.438-2.44-3.891-1.627-7.271-3.858-10.142-6.697-2.87-2.838-5.151-6.171-6.841-9.998-1.691-3.827-2.536-7.941-2.536-12.342.001-4.273.798-8.339 2.393-12.199zm-530.702 85.018c0-10.098 7.265-18.732 17.215-20.457l11.216-1.945a133.19 133.19 0 0 1 16.859-40.65l-6.569-9.325c-5.816-8.255-4.848-19.497 2.292-26.638l11.113-11.113c7.14-7.14 18.383-8.108 26.638-2.293l9.326 6.57a133.201 133.201 0 0 1 40.65-16.859l1.945-11.216c1.725-9.949 10.359-17.215 20.457-17.215H400.2c10.098 0 18.732 7.265 20.457 17.215l1.946 11.222c20.773 4.796 39.699 14.419 55.529 27.633l-1.58 1.92c-13.04 15.82-22.81 33.99-28.89 53.37-13.39-15.53-33.2-25.36-55.32-25.36-40.31 0-73 32.68-73 73 0 40.31 32.69 73 73 73 22.12 0 41.93-9.83 55.32-25.36 10.89-12.65 17.53-29.07 17.67-47.03v-1.22c.14-32.08 11.56-61.5 30.51-84.5a134.93 134.93 0 0 1 17.7-17.83c15.83-13.207 34.756-22.828 55.529-27.624l1.946-11.222c1.725-9.949 10.359-17.215 20.457-17.215h15.716c10.098 0 18.732 7.265 20.457 17.215l1.945 11.216a133.201 133.201 0 0 1 40.65 16.859l9.326-6.57c8.255-5.815 19.498-4.848 26.638 2.293l11.113 11.113c7.14 7.141 8.108 18.383 2.292 26.638l-6.569 9.325a133.201 133.201 0 0 1 16.859 40.65l11.216 1.945c9.95 1.725 17.215 10.359 17.215 20.457v15.716c0 10.098-7.265 18.732-17.215 20.457l-11.217 1.945a133.217 133.217 0 0 1-16.86 40.648l6.571 9.327c5.815 8.255 4.848 19.497-2.292 26.638l-11.113 11.113c-7.14 7.14-18.383 8.108-26.638 2.292l-9.327-6.57a133.227 133.227 0 0 1-40.648 16.86l-1.945 11.217c-1.725 9.949-10.359 17.215-20.457 17.215h-15.716c-10.098 0-18.732-7.265-20.457-17.215l-1.946-11.222c-20.773-4.796-39.7-14.416-55.529-27.624l1.6-1.94c13.03-15.82 22.79-33.99 28.88-53.36 13.38 15.53 33.19 25.36 55.31 25.36 40.31 0 72.99-32.69 72.99-73 0-40.32-32.68-73-72.99-73-22.12 0-41.93 9.83-55.31 25.36-10.9 12.64-17.54 29.06-17.68 47.03v1.22c-.14 32.08-11.56 61.5-30.5 84.5a134.933 134.933 0 0 1-17.71 17.82c-15.829 13.214-34.755 22.837-55.529 27.633l-1.946 11.222c-1.725 9.949-10.359 17.215-20.457 17.215h-15.716c-10.098 0-18.732-7.265-20.457-17.215l-1.945-11.217a133.227 133.227 0 0 1-40.648-16.86l-9.328 6.57c-8.255 5.816-19.498 4.848-26.638-2.292l-11.113-11.113c-7.14-7.141-8.108-18.383-2.292-26.638l6.571-9.327a133.217 133.217 0 0 1-16.86-40.648l-11.217-1.945c-9.95-1.725-17.215-10.359-17.215-20.457v-15.714zm-57.047-76.831c0-1.323.437-2.434 1.31-3.334.873-.899 1.997-1.35 3.374-1.35h11.909c3.652 0 7.038.662 10.162 1.985 3.122 1.323 5.835 3.124 8.137 5.399 2.302 2.276 4.101 4.949 5.398 8.019 1.296 3.07 1.945 6.351 1.945 9.844 0 3.811-.715 7.264-2.144 10.361-1.429 3.096-3.362 5.743-5.795 7.939-2.435 2.197-5.267 3.89-8.495 5.081-3.229 1.191-6.643 1.786-10.241 1.786h-10.877c-1.377 0-2.501-.449-3.374-1.35-.873-.899-1.31-2.011-1.31-3.334v-41.046zm31.121 79.163c1.322 0 2.447.447 3.374 1.339.925.893 1.389 1.994 1.389 3.307 0 1.207-.464 2.309-1.389 3.306-.927.997-2.052 1.496-3.374 1.496h-16.593v13.338h17.704c1.27 0 2.355.46 3.255 1.378.899.918 1.35 2.059 1.35 3.424 0 1.313-.45 2.415-1.35 3.307-.9.893-1.985 1.338-3.255 1.338H186.1c-1.365 0-2.48-.449-3.346-1.35-.866-.899-1.299-2.01-1.299-3.334v-41.045c0-1.323.433-2.434 1.299-3.335.866-.899 1.981-1.35 3.346-1.35h22.507c1.322 0 2.447.45 3.374 1.35.925.901 1.389 2.012 1.389 3.335s-.464 2.448-1.389 3.374c-.927.927-2.052 1.389-3.374 1.389h-17.784v8.733h16.593zm-31.399 45.876c.926-.925 2.051-1.389 3.374-1.389.899 0 1.747.252 2.54.754.794.503 1.429 1.284 1.905 2.342l13.417 31.359 13.814-31.439c.476-1.058 1.124-1.826 1.945-2.302.82-.476 1.68-.715 2.58-.715 1.163 0 2.223.385 3.176 1.151.953.768 1.429 1.814 1.429 3.136a8.056 8.056 0 0 0-.238 1.112c-.053.371-.133.768-.238 1.191l-17.783 40.648a6.425 6.425 0 0 1-1.747 2.263c-.742.609-1.721.913-2.938.913-1.111 0-2.024-.304-2.739-.913-.714-.608-1.284-1.389-1.707-2.342l-17.466-39.854a5.425 5.425 0 0 1-.715-2.699c.002-1.218.464-2.29 1.391-3.216z"></path>
    </g>

    <view xmlns="http://www.w3.org/2000/svg" id="icon-software-development-view" viewBox="151 0 50 48"/>
    <g id="icon-software-development" transform="translate(143,-9) scale(0.066)">
        <path d="M823.424 491.363c-10.826 0-20.286 5.831-25.424 14.521h-16.396c-1.038-14.49-13.159-25.963-27.909-25.963H700.68v-41.68h66c8.28 0 15-6.72 15-15 0-8.29-6.72-15-15-15h-66v-41.68h66c8.28 0 15-6.72 15-15 0-8.29-6.72-15-15-15h-66v-9.75c0-15.18-12.31-27.49-27.49-27.49h-9.75v-66c0-8.28-6.71-15-15-15-8.28 0-15 6.72-15 15v66h-41.68v-66c0-8.28-6.72-15-15-15-8.28 0-15 6.72-15 15v66h-51.84v-51.069c14.491-1.037 25.964-13.159 25.964-27.91V202c8.689-5.138 14.521-14.598 14.521-25.424 0-16.304-13.217-29.521-29.521-29.521-16.304 0-29.521 13.217-29.521 29.521 0 10.826 5.832 20.286 14.521 25.424v16.395c-14.49 1.039-25.964 13.16-25.964 27.91v53.016h-41.68v-66c0-8.28-6.72-15-15-15-8.28 0-15 6.72-15 15v66h-41.68v-66c0-8.28-6.72-15-15-15-8.29 0-15 6.72-15 15v66h-9.75c-15.18 0-27.49 12.31-27.49 27.49v9.75h-66c-8.28 0-15 6.71-15 15 0 8.28 6.72 15 15 15h66v41.68h-66c-8.28 0-15 6.71-15 15 0 8.28 6.72 15 15 15h66v51.84h-51.069c-1.038-14.49-13.159-25.963-27.91-25.963H202c-5.138-8.689-14.598-14.521-25.424-14.521-16.304 0-29.521 13.217-29.521 29.521 0 16.304 13.217 29.521 29.521 29.521 10.826 0 20.286-5.831 25.424-14.521h16.395c1.038 14.49 13.159 25.963 27.909 25.963h53.015v41.68h-66c-8.28 0-15 6.72-15 15 0 8.29 6.72 15 15 15h66v41.68h-66c-8.28 0-15 6.72-15 15 0 8.29 6.72 15 15 15h66v9.75c0 15.18 12.31 27.49 27.49 27.49h9.75v66c0 8.28 6.71 15 15 15 8.28 0 15-6.72 15-15v-66h41.68v66c0 8.28 6.72 15 15 15 8.28 0 15-6.72 15-15v-66h51.84v51.069c-14.491 1.037-25.964 13.159-25.964 27.91V798c-8.689 5.138-14.521 14.598-14.521 25.424 0 16.304 13.217 29.521 29.521 29.521 16.304 0 29.521-13.217 29.521-29.521 0-10.826-5.832-20.286-14.521-25.424v-16.394c14.49-1.039 25.964-13.16 25.964-27.91V700.68h41.68v66c0 8.28 6.72 15 15 15 8.28 0 15-6.72 15-15v-66h41.68v66c0 8.28 6.72 15 15 15 8.29 0 15-6.72 15-15v-66h9.75c15.18 0 27.49-12.31 27.49-27.49v-9.75h66c8.28 0 15-6.71 15-15 0-8.28-6.72-15-15-15h-66v-41.68h66c8.28 0 15-6.71 15-15 0-8.28-6.72-15-15-15h-66v-51.84h51.069c1.038 14.49 13.159 25.963 27.91 25.963H798c5.138 8.689 14.598 14.521 25.424 14.521 16.304 0 29.521-13.217 29.521-29.521 0-16.303-13.217-29.52-29.521-29.52zM673.19 591.76V673.19H326.81V326.81H673.19v264.95z"></path>
        <path d="M619.135 515c8.284 0 15-6.716 15-15s-6.716-15-15-15H589.19v-26.47h29.94c8.29 0 15-6.71 15-15 0-8.28-6.71-15-15-15h-29.95c-.14-9.72-7.99-17.57-17.71-17.71v-29.96c0-8.28-6.72-15-15-15-8.29 0-15 6.72-15 15v29.95H515v-29.945c0-8.284-6.716-15-15-15s-15 6.716-15 15v29.945h-26.47v-29.95c0-8.28-6.711-15-15-15-8.28 0-15 6.72-15 15v29.96c-9.72.14-17.57 7.99-17.711 17.71h-29.95c-8.29 0-15 6.72-15 15 0 8.29 6.71 15 15 15h29.94V485h-29.945c-8.284 0-15 6.716-15 15s6.716 15 15 15h29.945v26.47h-29.94c-8.29 0-15 6.71-15 15 0 8.28 6.71 15 15 15h29.95c.14 9.72 7.99 17.57 17.711 17.71v29.96c0 8.28 6.72 15 15 15 8.289 0 15-6.72 15-15v-29.95H485v29.945c0 8.284 6.716 15 15 15s15-6.716 15-15V589.19h26.47v29.95c0 8.28 6.71 15 15 15 8.28 0 15-6.72 15-15v-29.96c9.72-.14 17.57-7.99 17.71-17.71h29.95c8.29 0 15-6.72 15-15 0-8.29-6.71-15-15-15h-29.94V515h29.945zm-59.395 55.83c-7.59 0-13.74-6.16-13.74-13.75s6.15-13.75 13.74-13.75c4.97 0 9.31 2.63 11.73 6.57 1.28 2.09 2.02 4.55 2.02 7.18s-.74 5.09-2.02 7.18c-2.42 3.94-6.76 6.57-11.73 6.57zm-117.29 0c-7.59 0-13.74-6.16-13.74-13.75s6.15-13.75 13.74-13.75 13.75 6.16 13.75 13.75-6.16 13.75-13.75 13.75zm0-141.66c7.59 0 13.75 6.16 13.75 13.75s-6.16 13.75-13.75 13.75-13.74-6.16-13.74-13.75 6.15-13.75 13.74-13.75zm117.29 0c4.97 0 9.31 2.63 11.73 6.57 1.28 2.09 2.02 4.55 2.02 7.18s-.74 5.09-2.02 7.18c-2.42 3.94-6.76 6.57-11.73 6.57-7.59 0-13.74-6.16-13.74-13.75s6.15-13.75 13.74-13.75z"></path>
    </g>

    <view xmlns="http://www.w3.org/2000/svg" id="icon-teams-view" viewBox="202 0 50 48"/>
    <g id="icon-teams" transform="translate(204,0) scale(0.095)">
        <path d="M457.313 260.375c-12.219-16.563-34.905-40.844-34.905-57.188 0-8.344 11.875-19.063 9.219-35.406C413.828 59.125 337.344 16 240.625 16 144 16 48 79.281 48 180.031c0 100.781 64.188 128.031 64.188 193.375 0 17.625-9.656 47.094-15.094 62.313a9.327 9.327 0 0 0 .594 7.531 9.23 9.23 0 0 0 6.016 4.563l204.578 47.938c3.344.781 6.875-.344 9.108-2.969a9.215 9.215 0 0 0 1.517-9.47c-2.609-6.438-4.406-14.469-3.375-22.75 5.344-32.655 38.25-28.563 70.375-28.563 48.156 0 24.063-39.281 24.063-58.344 0-9.781 22.031-3.938 22.031-21.656 0-8.188-15.594-11.094-9.469-14.219 21.406-10.875 2.688-20.656 2.688-31.531 0-12.188 16.031-13.188 29.422-18.625 13.374-5.468 10.702-16.343 2.671-27.249zm-99.344-62.062c-8.672-5.359-23.594-10.688-39.578-8.438-15.781 2.328-29.233 11.844-38.875 27.516-2.547 4.141-1.266 9.563 2.875 12.109a8.925 8.925 0 0 0 4.609 1.297 8.777 8.777 0 0 0 7.5-4.188c6.938-11.25 15.828-17.75 26.438-19.313 10.517-1.578 20.563 2 26.173 5.016-7.625 12.906-20.609 24.609-37.438 32.063-9.625 4.266-23 7.078-34.531 7.875-2.108-4.906-5.063-9.078-8.983-12.344-10.625-8.859-23.531-7.766-24.906-7.625-4.813.5-8.25 4.766-7.797 9.578.453 4.797 4.734 8.188 9.547 7.938.063-.031 7-.531 12 3.719 1.767 1.5 3.156 3.516 4.156 5.984-16.237 12.063-40.425 35.688-51.159 76.5h-33.594l5.031-47.563c-24.906-.703-42.984-10.47-45.859-26.688-.219-1.233-.094-2.469-.109-3.703 42.938-21.563 64.594 8.767 65.5 10.063a8.817 8.817 0 0 0 12.219 2.422c4.031-2.703 5.125-8.172 2.406-12.203-.313-.5-32.25-46.484-91.406-14.25-16.547-8.5-27.781-25.344-27.781-44.922 0-12.469 4.516-23.813 12.094-32.625 6.047-2.438 13.156-4.359 20.656-5.094.656.547 9.656 8.359 9.938 17.266.156 4.656-2.188 9.125-7.188 13.656-3.594 3.266-3.875 8.828-.594 12.422a8.716 8.716 0 0 0 6.5 2.891 8.76 8.76 0 0 0 5.922-2.281c11.109-10.078 13.172-20.375 12.953-27.234-.156-5.344-1.75-10.125-3.813-14.313.719.25 1.531.266 2.234.547 9.984 4 17.328 11.656 21.859 22.766a8.826 8.826 0 0 0 8.156 5.469 8.655 8.655 0 0 0 3.328-.656c4.5-1.828 6.656-6.969 4.828-11.469-6.406-15.688-17.047-26.594-31.609-32.453-14.672-5.875-31.172-5.391-45.141-2.359.75-27.406 19.609-51.938 47.641-59.75-1.844 13.625 2.641 28.469 16.547 40.156a8.745 8.745 0 0 0 5.656 2.063c2.516 0 5-1.063 6.75-3.141 3.125-3.719 2.641-9.266-1.078-12.391-14.516-12.203-11.375-26.891-6.547-35.109 7.438-6.203 16.375-10.875 26.531-13.266 21.047-4.953 42.063.969 57.219 13.938.531 6.172-1.188 12.797-8.155 18.656-3.72 3.125-4.22 8.672-1.078 12.391a8.747 8.747 0 0 0 6.733 3.141c2 0 4.017-.672 5.656-2.063 12-10.078 15.594-22.094 14.469-33.672 19.781-2.469 38.859 4.766 51.844 18.391-15.438 5.016-32.78 16.031-41.797 36.281-.641-.203-1.172-.531-1.858-.688-11.813-2.75-27.906 2.25-35.875 17.344-2.281 4.297-.625 9.625 3.672 11.891a8.827 8.827 0 0 0 4.109 1.016 8.79 8.79 0 0 0 7.78-4.688c2.845-5.391 7.078-7.453 10.125-8.234 2.906-.734 5.25-.484 6.47-.125.094.297.313.547.438.828-.938 5.781-1.313 12.078-.969 18.969.25 4.703 4.125 8.359 8.781 8.359.155 0 .313 0 .452-.016 4.859-.234 8.594-4.359 8.359-9.219-2.298-45.719 32.813-55.203 44.453-57.094 15.78 4.766 28.078 16.984 32.672 32.516-2.578 4.5-6.031 7.328-10.5 8.516-7.75 2.047-17.094-1.172-21.969-5.281-3.734-3.109-9.281-2.625-12.406 1.094-3.125 3.734-2.625 9.281 1.094 12.406 6.594 5.516 17.047 10.047 28.063 10.047 3.25 0 6.53-.391 9.78-1.266 2.156-.578 4.5-1.469 6.906-2.703-3.092 14.717-13.06 26.873-26.529 33.327zm-117.063-97.719c5.344 12.406 5.578 23.047.672 31.641-2.406 4.219-5.688 7.25-9.031 9.438 7.719 10.703 11.578 24.422 9.953 37.328-2.375 18.984-15.656 34.609-37.406 44.016a9.003 9.003 0 0 1-3.5.719 8.789 8.789 0 0 1-8.078-5.313c-1.922-4.453.125-9.641 4.578-11.563 16.031-6.922 25.359-17.313 26.953-30.047 1.438-11.484-4-24.469-13.234-31.578-2.813-2.172-4.047-5.844-3.109-9.281s3.859-5.969 7.391-6.422c0 0 7.5-1.203 10.234-6.078 2.453-4.406.484-11.063-1.578-15.891-1.938-4.453.125-9.641 4.594-11.563 4.436-1.922 9.624.125 11.561 4.594z"></path>
    </g>

    <view xmlns="http://www.w3.org/2000/svg" id="icon-menu-view" viewBox="101 50 50 49"/>
    <g id="icon-menu" transform="translate(103,52) scale(0.35)">
        <g>
            <path d="M124,28H4c-2.209,0-4-1.791-4-4s1.791-4,4-4h120c2.209,0,4,1.791,4,4S126.209,28,124,28z"/>
        </g>
        <g>
            <path d="M124,68H4c-2.209,0-4-1.791-4-4s1.791-4,4-4h120c2.209,0,4,1.791,4,4S126.209,68,124,68z"/>
        </g>
        <g>
            <path d="M124,108H4c-2.209,0-4-1.791-4-4s1.791-4,4-4h120c2.209,0,4,1.791,4,4S126.209,108,124,108z"/>
        </g>
    </g>

    <view xmlns="http://www.w3.org/2000/svg" id="icon-ai-view" viewBox="148 52 52 50"/>
    <g id="icon-ai" transform="translate(148,52) scale(0.80)">
        <circle cx="34.52" cy="11.43" r="5.82"/><circle cx="53.63" cy="31.6" r="5.82"/><circle cx="34.52" cy="50.57" r="5.82"/><circle cx="15.16" cy="42.03" r="5.82"/><circle cx="15.16" cy="19.27" r="5.82"/><circle cx="34.51" cy="29.27" r="4.7"/><line x1="20.17" y1="16.3" x2="28.9" y2="12.93"/><line x1="38.6" y1="15.59" x2="49.48" y2="27.52"/><line x1="50.07" y1="36.2" x2="38.67" y2="46.49"/><line x1="18.36" y1="24.13" x2="30.91" y2="46.01"/><line x1="20.31" y1="44.74" x2="28.7" y2="48.63"/><line x1="17.34" y1="36.63" x2="31.37" y2="16.32"/><line x1="20.52" y1="21.55" x2="30.34" y2="27.1"/><line x1="39.22" y1="29.8" x2="47.81" y2="30.45"/><line x1="34.51" y1="33.98" x2="34.52" y2="44.74"/>
    </g>
        
    <line class="grid horizontal" x1="0" y1="25" x2="100%" y2="25" />
    <line class="grid horizontal" x1="0" y1="50" x2="100%" y2="50" />
    <line class="grid horizontal" x1="0" y1="100" x2="100%" y2="100" />
    <line class="grid horizontal" x1="0" y1="125" x2="100%" y2="125" />
    <line class="grid vertical" x1="50" y1="0" x2="50" y2="100%" />
    <line class="grid vertical" x1="100" y1="0" x2="100" y2="100%" />
    <line class="grid vertical" x1="150" y1="0" x2="150" y2="100%" />
    <line class="grid vertical" x1="200" y1="0" x2="200" y2="100%" />
    <line class="grid vertical" x1="250" y1="0" x2="250" y2="100%" />
</svg>
