<svg viewBox="0 0 128 128" xml:space="preserve" xmlns="http://www.w3.org/2000/svg" enable-background="new 0 0 128 128"><path d="M52.197 20.146 31.371.543a2 2 0 1 0-2.742 2.914L49.406 23.01c.185-.23 2.791-2.865 2.791-2.865zM99.457.663A1.999 1.999 0 0 0 96.63.576L75.81 20.152s2.603 2.634 2.79 2.867l20.77-19.53a2 2 0 0 0 .087-2.826zM75.884 35.773l-3.388 3.388 8.53 41.481-32.34-9.24 6.583-32.476-3.394-3.394-11.783 58.13c-.378 2.17.44 5.314 1.825 7.023l19.637 26.028c.695.858 1.61 1.287 2.525 1.287.908 0 1.817-.423 2.513-1.27l19.515-25.563c1.397-1.7 2.196-4.832 1.785-6.996L75.884 35.773zm7.852 58.046L46.602 82.093c-.027-.008-.053-.01-.08-.017l1.367-6.742 33.562 9.589c.156.045.313.06.47.066l1.815 8.83zm-.808 4.92-18.845 24.685L45.11 98.276a6.426 6.426 0 0 0-.086-.11c-.654-.807-1.159-2.73-.998-3.778l1.699-8.378 37.673 11.897c.012.004.024.002.036.006a3.226 3.226 0 0 1-.506.827z" fill="#ffffff" class="fill-000000"></path><path d="m52.829 30.829 8.342 8.342A3.988 3.988 0 0 0 64 40.338c1.025 0 2.05-.389 2.829-1.167l8.342-8.342a4.012 4.012 0 0 0 0-5.658L66.83 16.83A3.988 3.988 0 0 0 64 15.662c-1.025 0-2.05.389-2.829 1.167L52.83 25.17a4.012 4.012 0 0 0 0 5.658zm11.16-11.166H64v-.006L72.343 28 64 36.343 55.657 28l8.332-8.337z" fill="#ffffff" class="fill-000000"></path></svg>