<svg version="1.0" viewBox="0 0 100 100" xml:space="preserve" xmlns="http://www.w3.org/2000/svg"><path d="M88.624 33.519 50.771 10.813a1.498 1.498 0 0 0-1.542 0L11.376 33.519a1.498 1.498 0 0 0 0 2.572l11.754 7.05-4.434 15.445a1.5 1.5 0 0 0 .7 1.718l29.862 17a1.502 1.502 0 0 0 1.484 0l16.425-9.35v7.745c-2.55.667-4.44 2.984-4.44 5.74 0 3.276 2.665 5.94 5.94 5.94s5.94-2.664 5.94-5.94c0-2.756-1.89-5.073-4.44-5.74v-9.453l10.437-5.942a1.5 1.5 0 0 0 .7-1.718L76.87 43.14l11.754-7.05a1.498 1.498 0 0 0 0-2.572zm-17.018 47.92c0 1.622-1.318 2.94-2.939 2.94s-2.94-1.318-2.94-2.94 1.319-2.939 2.94-2.939 2.94 1.318 2.94 2.94zM50 74.274 21.905 58.28l3.887-13.541L49.23 58.797a1.498 1.498 0 0 0 1.542 0l16.396-9.835v15.54L50 74.273zM78.095 58.28l-7.928 4.513v-15.63l4.04-2.424 3.888 13.541zm-2.081-18.123-2.663 1.597-4.948 2.968L50.805 33.54a1.5 1.5 0 1 0-1.61 2.531l16.33 10.378L50 55.762 26.649 41.754l-2.663-1.597-8.923-5.352L50 13.848l34.937 20.957-8.923 5.352z" fill="#ffffff" class="fill-000000"></path></svg>