<svg viewBox="0 0 75 75" xml:space="preserve" xmlns="http://www.w3.org/2000/svg" enable-background="new 0 0 75 75"><path d="M35.7 27.2c2.2 0 4-1.8 4-4s-1.8-4-4-4-4 1.8-4 4 1.8 4 4 4zm0-5.9c1.1 0 2 .9 2 2s-.9 2-2 2-2-.9-2-2 .9-2 2-2z" fill="#ffffff" class="fill-000000"></path><path d="M18.1 70.4c.5.2 1.1-.1 1.3-.6l1.6-4.7c1.6.1 2.9-.9 3.4-2.4l4.4-13.1c1.2.4 2.4.7 3.6.9.4 1.5 1.8 2.6 3.4 2.6 1.6 0 3-1.1 3.4-2.6 1.2-.2 2.4-.5 3.6-.9L47 62.8c.5 1.5 1.9 2.4 3.4 2.4l1.5 4.7c.2.5.7.8 1.3.6.5-.2.8-.7.6-1.3l-1.5-4.7c1.4-1 1.8-2.6 1.3-4l-4.7-14.3c5.4-4.1 8.6-10.6 8.6-17.4 0-.6-.4-1-1-1s-1 .4-1 1c0 6-2.7 11.6-7.3 15.4L42.8 28c.9-1.4 1.4-3 1.4-4.7 0-3.5-2.1-6.5-5.1-7.8V8c0-1.9-1.6-3.5-3.5-3.5S32.2 6.1 32.2 8v7.4c-3 1.3-5.1 4.3-5.1 7.8 0 1.8.5 3.4 1.4 4.8L17.7 60.6c-.5 1.5.1 3.1 1.3 4l-1.6 4.7c-.1.4.2 1 .7 1.1zm17.6-19.3c-.8 0-1.5-.7-1.5-1.5s.7-1.5 1.5-1.5 1.5.7 1.5 1.5-.7 1.5-1.5 1.5zm3.3-2.6c-.5-1.4-1.8-2.4-3.3-2.4-1.5 0-2.8 1-3.3 2.4-1-.2-2-.4-3-.8l5.3-16c.3 0 .7.1 1 .1.3 0 .7 0 1-.1l5.3 16c-1 .4-2 .6-3 .8zm11.8 14.6c-.7.3-1.6-.1-1.9-1-7.2-21.7-1.9-5.7-10.3-30.9 1-.4 1.9-.9 2.7-1.6l10.5 31.5c.2.9-.1 1.7-1 2zM34.2 8c0-.8.7-1.5 1.5-1.5s1.5.7 1.5 1.5v6.8c-.5-.1-1-.1-1.5-.1s-1 .1-1.5.1V8zm1.5 8.7c3.6 0 6.6 2.9 6.6 6.6 0 3.6-2.9 6.6-6.6 6.6-3.6 0-6.6-2.9-6.6-6.6 0-3.7 3-6.6 6.6-6.6zM19.6 61.2l10.5-31.5c.8.7 1.7 1.2 2.6 1.6-2.4 7.2-8.4 25.1-10.3 30.9-.3.8-1.1 1.2-1.9.9-.7-.3-1.1-1.1-.9-1.9z" fill="#ffffff" class="fill-000000"></path></svg>