<svg viewBox="0 0 1000 1000" xml:space="preserve" xmlns="http://www.w3.org/2000/svg" enable-background="new 0 0 1000 1000"><path d="M823.424 491.363c-10.826 0-20.286 5.831-25.424 14.521h-16.396c-1.038-14.49-13.159-25.963-27.909-25.963H700.68v-41.68h66c8.28 0 15-6.72 15-15 0-8.29-6.72-15-15-15h-66v-41.68h66c8.28 0 15-6.72 15-15 0-8.29-6.72-15-15-15h-66v-9.75c0-15.18-12.31-27.49-27.49-27.49h-9.75v-66c0-8.28-6.71-15-15-15-8.28 0-15 6.72-15 15v66h-41.68v-66c0-8.28-6.72-15-15-15-8.28 0-15 6.72-15 15v66h-51.84v-51.069c14.491-1.037 25.964-13.159 25.964-27.91V202c8.689-5.138 14.521-14.598 14.521-25.424 0-16.304-13.217-29.521-29.521-29.521-16.304 0-29.521 13.217-29.521 29.521 0 10.826 5.832 20.286 14.521 25.424v16.395c-14.49 1.039-25.964 13.16-25.964 27.91v53.016h-41.68v-66c0-8.28-6.72-15-15-15-8.28 0-15 6.72-15 15v66h-41.68v-66c0-8.28-6.72-15-15-15-8.29 0-15 6.72-15 15v66h-9.75c-15.18 0-27.49 12.31-27.49 27.49v9.75h-66c-8.28 0-15 6.71-15 15 0 8.28 6.72 15 15 15h66v41.68h-66c-8.28 0-15 6.71-15 15 0 8.28 6.72 15 15 15h66v51.84h-51.069c-1.038-14.49-13.159-25.963-27.91-25.963H202c-5.138-8.689-14.598-14.521-25.424-14.521-16.304 0-29.521 13.217-29.521 29.521 0 16.304 13.217 29.521 29.521 29.521 10.826 0 20.286-5.831 25.424-14.521h16.395c1.038 14.49 13.159 25.963 27.909 25.963h53.015v41.68h-66c-8.28 0-15 6.72-15 15 0 8.29 6.72 15 15 15h66v41.68h-66c-8.28 0-15 6.72-15 15 0 8.29 6.72 15 15 15h66v9.75c0 15.18 12.31 27.49 27.49 27.49h9.75v66c0 8.28 6.71 15 15 15 8.28 0 15-6.72 15-15v-66h41.68v66c0 8.28 6.72 15 15 15 8.28 0 15-6.72 15-15v-66h51.84v51.069c-14.491 1.037-25.964 13.159-25.964 27.91V798c-8.689 5.138-14.521 14.598-14.521 25.424 0 16.304 13.217 29.521 29.521 29.521 16.304 0 29.521-13.217 29.521-29.521 0-10.826-5.832-20.286-14.521-25.424v-16.394c14.49-1.039 25.964-13.16 25.964-27.91V700.68h41.68v66c0 8.28 6.72 15 15 15 8.28 0 15-6.72 15-15v-66h41.68v66c0 8.28 6.72 15 15 15 8.29 0 15-6.72 15-15v-66h9.75c15.18 0 27.49-12.31 27.49-27.49v-9.75h66c8.28 0 15-6.71 15-15 0-8.28-6.72-15-15-15h-66v-41.68h66c8.28 0 15-6.71 15-15 0-8.28-6.72-15-15-15h-66v-51.84h51.069c1.038 14.49 13.159 25.963 27.91 25.963H798c5.138 8.689 14.598 14.521 25.424 14.521 16.304 0 29.521-13.217 29.521-29.521 0-16.303-13.217-29.52-29.521-29.52zM673.19 591.76V673.19H326.81V326.81H673.19v264.95z" fill="#ffffff" class="fill-000000"></path><path d="M619.135 515c8.284 0 15-6.716 15-15s-6.716-15-15-15H589.19v-26.47h29.94c8.29 0 15-6.71 15-15 0-8.28-6.71-15-15-15h-29.95c-.14-9.72-7.99-17.57-17.71-17.71v-29.96c0-8.28-6.72-15-15-15-8.29 0-15 6.72-15 15v29.95H515v-29.945c0-8.284-6.716-15-15-15s-15 6.716-15 15v29.945h-26.47v-29.95c0-8.28-6.711-15-15-15-8.28 0-15 6.72-15 15v29.96c-9.72.14-17.57 7.99-17.711 17.71h-29.95c-8.29 0-15 6.72-15 15 0 8.29 6.71 15 15 15h29.94V485h-29.945c-8.284 0-15 6.716-15 15s6.716 15 15 15h29.945v26.47h-29.94c-8.29 0-15 6.71-15 15 0 8.28 6.71 15 15 15h29.95c.14 9.72 7.99 17.57 17.711 17.71v29.96c0 8.28 6.72 15 15 15 8.289 0 15-6.72 15-15v-29.95H485v29.945c0 8.284 6.716 15 15 15s15-6.716 15-15V589.19h26.47v29.95c0 8.28 6.71 15 15 15 8.28 0 15-6.72 15-15v-29.96c9.72-.14 17.57-7.99 17.71-17.71h29.95c8.29 0 15-6.72 15-15 0-8.29-6.71-15-15-15h-29.94V515h29.945zm-59.395 55.83c-7.59 0-13.74-6.16-13.74-13.75s6.15-13.75 13.74-13.75c4.97 0 9.31 2.63 11.73 6.57 1.28 2.09 2.02 4.55 2.02 7.18s-.74 5.09-2.02 7.18c-2.42 3.94-6.76 6.57-11.73 6.57zm-117.29 0c-7.59 0-13.74-6.16-13.74-13.75s6.15-13.75 13.74-13.75 13.75 6.16 13.75 13.75-6.16 13.75-13.75 13.75zm0-141.66c7.59 0 13.75 6.16 13.75 13.75s-6.16 13.75-13.75 13.75-13.74-6.16-13.74-13.75 6.15-13.75 13.74-13.75zm117.29 0c4.97 0 9.31 2.63 11.73 6.57 1.28 2.09 2.02 4.55 2.02 7.18s-.74 5.09-2.02 7.18c-2.42 3.94-6.76 6.57-11.73 6.57-7.59 0-13.74-6.16-13.74-13.75s6.15-13.75 13.74-13.75z" fill="#ffffff" class="fill-000000"></path></svg>