<svg viewBox="0 0 512 512" xml:space="preserve" xmlns="http://www.w3.org/2000/svg"><path d="M457.313 260.375c-12.219-16.563-34.905-40.844-34.905-57.188 0-8.344 11.875-19.063 9.219-35.406C413.828 59.125 337.344 16 240.625 16 144 16 48 79.281 48 180.031c0 100.781 64.188 128.031 64.188 193.375 0 17.625-9.656 47.094-15.094 62.313a9.327 9.327 0 0 0 .594 7.531 9.23 9.23 0 0 0 6.016 4.563l204.578 47.938c3.344.781 6.875-.344 9.108-2.969a9.215 9.215 0 0 0 1.517-9.47c-2.609-6.438-4.406-14.469-3.375-22.75 5.344-32.655 38.25-28.563 70.375-28.563 48.156 0 24.063-39.281 24.063-58.344 0-9.781 22.031-3.938 22.031-21.656 0-8.188-15.594-11.094-9.469-14.219 21.406-10.875 2.688-20.656 2.688-31.531 0-12.188 16.031-13.188 29.422-18.625 13.374-5.468 10.702-16.343 2.671-27.249zm-99.344-62.062c-8.672-5.359-23.594-10.688-39.578-8.438-15.781 2.328-29.233 11.844-38.875 27.516-2.547 4.141-1.266 9.563 2.875 12.109a8.925 8.925 0 0 0 4.609 1.297 8.777 8.777 0 0 0 7.5-4.188c6.938-11.25 15.828-17.75 26.438-19.313 10.517-1.578 20.563 2 26.173 5.016-7.625 12.906-20.609 24.609-37.438 32.063-9.625 4.266-23 7.078-34.531 7.875-2.108-4.906-5.063-9.078-8.983-12.344-10.625-8.859-23.531-7.766-24.906-7.625-4.813.5-8.25 4.766-7.797 9.578.453 4.797 4.734 8.188 9.547 7.938.063-.031 7-.531 12 3.719 1.767 1.5 3.156 3.516 4.156 5.984-16.237 12.063-40.425 35.688-51.159 76.5h-33.594l5.031-47.563c-24.906-.703-42.984-10.47-45.859-26.688-.219-1.233-.094-2.469-.109-3.703 42.938-21.563 64.594 8.767 65.5 10.063a8.817 8.817 0 0 0 12.219 2.422c4.031-2.703 5.125-8.172 2.406-12.203-.313-.5-32.25-46.484-91.406-14.25-16.547-8.5-27.781-25.344-27.781-44.922 0-12.469 4.516-23.813 12.094-32.625 6.047-2.438 13.156-4.359 20.656-5.094.656.547 9.656 8.359 9.938 17.266.156 4.656-2.188 9.125-7.188 13.656-3.594 3.266-3.875 8.828-.594 12.422a8.716 8.716 0 0 0 6.5 2.891 8.76 8.76 0 0 0 5.922-2.281c11.109-10.078 13.172-20.375 12.953-27.234-.156-5.344-1.75-10.125-3.813-14.313.719.25 1.531.266 2.234.547 9.984 4 17.328 11.656 21.859 22.766a8.826 8.826 0 0 0 8.156 5.469 8.655 8.655 0 0 0 3.328-.656c4.5-1.828 6.656-6.969 4.828-11.469-6.406-15.688-17.047-26.594-31.609-32.453-14.672-5.875-31.172-5.391-45.141-2.359.75-27.406 19.609-51.938 47.641-59.75-1.844 13.625 2.641 28.469 16.547 40.156a8.745 8.745 0 0 0 5.656 2.063c2.516 0 5-1.063 6.75-3.141 3.125-3.719 2.641-9.266-1.078-12.391-14.516-12.203-11.375-26.891-6.547-35.109 7.438-6.203 16.375-10.875 26.531-13.266 21.047-4.953 42.063.969 57.219 13.938.531 6.172-1.188 12.797-8.155 18.656-3.72 3.125-4.22 8.672-1.078 12.391a8.747 8.747 0 0 0 6.733 3.141c2 0 4.017-.672 5.656-2.063 12-10.078 15.594-22.094 14.469-33.672 19.781-2.469 38.859 4.766 51.844 18.391-15.438 5.016-32.78 16.031-41.797 36.281-.641-.203-1.172-.531-1.858-.688-11.813-2.75-27.906 2.25-35.875 17.344-2.281 4.297-.625 9.625 3.672 11.891a8.827 8.827 0 0 0 4.109 1.016 8.79 8.79 0 0 0 7.78-4.688c2.845-5.391 7.078-7.453 10.125-8.234 2.906-.734 5.25-.484 6.47-.125.094.297.313.547.438.828-.938 5.781-1.313 12.078-.969 18.969.25 4.703 4.125 8.359 8.781 8.359.155 0 .313 0 .452-.016 4.859-.234 8.594-4.359 8.359-9.219-2.298-45.719 32.813-55.203 44.453-57.094 15.78 4.766 28.078 16.984 32.672 32.516-2.578 4.5-6.031 7.328-10.5 8.516-7.75 2.047-17.094-1.172-21.969-5.281-3.734-3.109-9.281-2.625-12.406 1.094-3.125 3.734-2.625 9.281 1.094 12.406 6.594 5.516 17.047 10.047 28.063 10.047 3.25 0 6.53-.391 9.78-1.266 2.156-.578 4.5-1.469 6.906-2.703-3.092 14.717-13.06 26.873-26.529 33.327zm-117.063-97.719c5.344 12.406 5.578 23.047.672 31.641-2.406 4.219-5.688 7.25-9.031 9.438 7.719 10.703 11.578 24.422 9.953 37.328-2.375 18.984-15.656 34.609-37.406 44.016a9.003 9.003 0 0 1-3.5.719 8.789 8.789 0 0 1-8.078-5.313c-1.922-4.453.125-9.641 4.578-11.563 16.031-6.922 25.359-17.313 26.953-30.047 1.438-11.484-4-24.469-13.234-31.578-2.813-2.172-4.047-5.844-3.109-9.281s3.859-5.969 7.391-6.422c0 0 7.5-1.203 10.234-6.078 2.453-4.406.484-11.063-1.578-15.891-1.938-4.453.125-9.641 4.594-11.563 4.436-1.922 9.624.125 11.561 4.594z" fill="#ffffff" class="fill-4d4d4d"></path></svg>