<svg viewBox="0 0 64 64" xml:space="preserve" xmlns="http://www.w3.org/2000/svg"><path d="M54 12v30c0 2.2-1.8 4-4 4H13c-2.2 0-4-1.8-4-4V12M6 12h51M32 12V8M32 50l7.2 7.2M32 50l-7.6 7.6M28 50h8M46.8 25v12M42 37V20.8M37.5 37v-7" fill="none" stroke="#ffffff" stroke-linecap="round" stroke-linejoin="round" stroke-miterlimit="10" stroke-width="2" class="stroke-2c3e50"></path><path d="M15.2 32.1s.4-3.5 1.8-2.7c1.4.8.5 7.4 2.6 4.8s1.9-9.1 3.5-9 1.1 11.5 2.9 11.5 5.5-16.3 5.5-16.3" fill="none" stroke="#ffffff" stroke-linecap="round" stroke-linejoin="round" stroke-miterlimit="10" stroke-width="2" class="stroke-2c3e50"></path></svg>